<?xml version="1.0" standalone="no"?><!DOCTYPE svg PUBLIC "-//W3C//DTD SVG 1.1//EN" "http://www.w3.org/Graphics/SVG/1.1/DTD/svg11.dtd"><svg t="1508988361685" class="icon" style="" viewBox="0 0 1024 1024" version="1.1" xmlns="http://www.w3.org/2000/svg" p-id="12177" xmlns:xlink="http://www.w3.org/1999/xlink" width="25" height="25"><defs><style type="text/css"></style></defs><path d="M477.769143 39.643429C270.336 58.953143 123.026286 258.925714 161.060571 463.433143c16.384 88.064 65.536 159.744 143.213714 258.048 38.326857 48.420571 116.150857 166.473143 164.864 241.664 19.894857 30.72 65.097143 30.573714 84.553143-0.438857 45.641143-72.411429 130.194286-199.094857 165.595429-241.078857C822.418286 599.625143 868.937143 523.117714 868.937143 394.532571 868.937143 186.368 690.176 19.894857 477.769143 39.643429zM421.888 261.266286c-44.470857 29.257143-73.874286 79.579429-73.874286 136.777143 0 90.404571 73.435429 163.84 163.986286 163.84 90.550857 0 163.986286-73.289143 163.986286-163.84 0-57.197714-29.403429-107.666286-73.874286-136.923429" p-id="12178" fill="#008000"></path></svg>